<?xml version="1.0" standalone="no"?>
<!DOCTYPE svg PUBLIC "-//W3C//DTD SVG 20010904//EN"
 "http://www.w3.org/TR/2001/REC-SVG-20010904/DTD/svg10.dtd">
<svg version="1.0" xmlns="http://www.w3.org/2000/svg"
 width="4000.000000pt" height="2667.000000pt" viewBox="0 0 4000.000000 2667.000000"
 preserveAspectRatio="xMidYMid meet">

<g transform="translate(0.000000,2667.000000) scale(0.100000,-0.100000)"
fill="#000000" stroke="none">
<path d="M22531 26562 c1406 -928 2726 -2155 3879 -3607 445 -561 772 -1024
1375 -1947 930 -1425 2106 -2776 3396 -3903 1736 -1518 3698 -2709 5949 -3613
752 -302 1673 -608 2465 -820 198 -54 387 -102 396 -102 5 0 9 102 9 248 l0
249 -162 68 c-932 390 -1889 873 -2759 1391 -2994 1784 -5381 4157 -7066 7024
-265 451 -389 683 -823 1545 -288 572 -411 805 -629 1191 -31 55 -51 79 -61
77 -12 -4 -12 -2 -2 5 17 11 -37 106 -318 562 -349 566 -730 1116 -1137 1643
l-75 97 -2301 0 -2300 0 164 -108z m5760 -1839 c13 -16 12 -17 -3 -4 -17 13
-22 21 -14 21 2 0 10 -8 17 -17z m59 -133 c-11 -7 -11 -10 -2 -10 7 0 10 -5 6
-11 -4 -8 -9 -7 -15 2 -9 15 -3 29 14 29 7 0 6 -4 -3 -10z m73 -93 c-7 -11
-28 15 -36 43 -6 23 -5 23 17 -5 13 -17 22 -33 19 -38z m-56 38 c0 -8 -4 -12
-9 -9 -5 3 -6 10 -3 15 9 13 12 11 12 -6z m69 -54 c-3 -5 1 -14 9 -21 8 -7 15
-21 15 -31 0 -10 4 -20 9 -23 5 -4 7 -20 5 -36 -4 -25 -2 -30 15 -30 12 0 21
-4 21 -10 0 -5 -6 -7 -14 -4 -9 3 -13 -2 -11 -18 4 -37 4 -38 17 -38 9 0 9 3
0 12 -17 17 -15 24 8 25 19 2 31 -13 75 -86 5 -9 3 -12 -6 -9 -8 3 -14 9 -14
14 -1 17 -35 74 -45 74 -5 0 -1 -16 10 -35 11 -20 20 -49 20 -64 0 -34 21 -46
35 -20 9 16 12 15 27 -11 12 -20 13 -32 6 -36 -6 -4 -8 -3 -5 3 4 6 -1 17 -10
24 -15 12 -16 12 -10 -4 4 -11 3 -16 -3 -12 -6 3 -10 1 -10 -4 0 -6 5 -11 11
-11 6 0 9 -7 5 -15 -4 -13 -2 -14 14 -5 16 9 18 8 14 -5 -4 -8 -1 -15 5 -15 6
0 11 6 11 13 1 8 4 7 9 -3 5 -8 8 -18 8 -21 -1 -4 5 -15 14 -25 21 -24 29 -49
21 -60 -4 -5 -6 -8 -3 -7 9 5 41 -19 36 -26 -3 -5 2 -11 9 -14 8 -3 14 -15 13
-26 -2 -24 -17 -29 -17 -5 0 8 -3 13 -8 10 -4 -2 -15 2 -25 9 -18 13 -18 14 0
25 17 11 17 11 0 6 -11 -3 -20 0 -24 9 -4 11 -9 13 -18 5 -9 -8 -12 -2 -9 24
2 26 -1 33 -12 29 -8 -3 -14 0 -14 6 0 6 -6 11 -13 11 -16 0 -51 65 -43 79 4
7 1 8 -8 5 -9 -3 -16 -1 -16 5 0 6 -12 30 -26 52 -14 23 -32 60 -40 82 -8 23
-22 49 -31 59 -8 9 -13 26 -11 36 3 10 0 30 -7 43 -9 16 -10 29 -4 41 5 10 7
18 4 18 -4 0 -3 5 0 10 3 6 8 10 11 10 3 0 3 -4 0 -9z m330 -603 c3 -4 -1 -5
-10 -4 -8 1 -18 5 -22 8 -3 4 1 5 10 4 8 -1 18 -5 22 -8z m48 -148 c-6 -6 -10
-3 -10 10 0 13 4 16 10 10 7 -7 7 -13 0 -20z"/>
<path d="M28640 24072 c0 -11 30 -72 36 -72 8 0 -2 38 -14 52 -6 8 -9 18 -5
21 3 4 1 7 -5 7 -7 0 -12 -4 -12 -8z"/>
<path d="M27527 26373 c278 -381 623 -904 887 -1345 116 -192 213 -345 219
-341 6 3 7 1 3 -5 -4 -6 77 -166 180 -354 104 -189 238 -443 298 -564 81 -162
115 -220 126 -217 12 4 12 2 2 -5 -10 -7 31 -100 178 -403 328 -679 520 -1050
758 -1469 711 -1251 1547 -2396 2556 -3500 213 -233 894 -913 1131 -1130 1762
-1610 3720 -2877 5959 -3856 93 -41 171 -74 173 -74 1 0 3 3051 3 6780 l0
6780 -6345 0 -6344 0 216 -297z m1706 -1170 c-7 -2 -19 -2 -25 0 -7 3 -2 5 12
5 14 0 19 -2 13 -5z m-246 -29 c-3 -3 -12 -4 -19 -1 -8 3 -5 6 6 6 11 1 17 -2
13 -5z m683 -104 c35 -33 70 -58 76 -56 8 3 11 0 8 -8 -3 -7 4 -21 16 -31 11
-10 20 -24 20 -30 0 -7 8 -12 17 -11 10 0 19 -7 21 -17 2 -11 19 -35 38 -55
18 -20 32 -38 30 -40 -4 -3 27 -64 58 -114 6 -11 18 -16 28 -12 23 7 44 -32
28 -51 -7 -8 -10 -20 -7 -27 4 -8 6 -7 6 5 1 25 16 21 29 -8 6 -14 16 -25 22
-25 5 0 10 -7 10 -15 0 -9 9 -28 19 -43 27 -39 48 -237 32 -310 -6 -29 -11
-67 -11 -85 0 -46 -41 -168 -73 -216 -15 -22 -27 -50 -27 -61 0 -11 -5 -19
-11 -17 -6 1 -20 -15 -31 -35 -11 -21 -26 -38 -34 -38 -8 0 -14 -3 -14 -8 0
-4 -18 -18 -40 -32 -22 -14 -40 -28 -40 -32 0 -5 -6 -8 -13 -8 -18 0 -67 -24
-67 -32 0 -5 -7 -8 -15 -8 -8 0 -19 -9 -25 -20 -6 -12 -21 -19 -38 -19 -15 0
-56 -6 -92 -13 -77 -15 -300 -13 -311 3 -3 6 -18 12 -31 12 -33 2 -59 27 -28
27 11 0 20 5 20 10 0 6 -14 10 -31 10 -28 0 -30 2 -18 17 12 15 12 16 -3 10
-10 -3 -20 -2 -23 4 -4 5 -3 8 2 7 4 -2 8 2 8 7 0 6 -6 9 -12 9 -13 -2 -14 0
-17 39 -1 12 -7 21 -14 19 -7 -1 -14 3 -16 10 -2 7 -7 22 -12 33 -4 11 -6 23
-6 28 1 4 -4 7 -11 7 -8 0 -7 4 3 10 13 9 13 10 0 10 -8 0 -20 10 -26 23 -11
23 -68 128 -112 207 -26 47 -79 144 -120 220 -13 25 -34 63 -46 85 -130 234
-139 255 -133 307 4 28 10 55 15 62 5 6 13 29 17 51 3 21 20 56 36 76 16 20
29 41 29 46 0 6 14 21 32 34 17 13 43 34 57 45 73 60 189 90 308 80 117 -9
163 -17 163 -27 0 -5 7 -9 16 -9 23 0 114 -41 114 -51 0 -5 11 -9 24 -9 31 0
44 30 16 37 -11 3 -20 9 -20 14 0 5 -7 9 -15 9 -8 0 -15 5 -15 10 0 6 4 10 9
10 6 0 13 -4 16 -10 3 -5 15 -10 25 -10 10 0 21 -6 24 -12 5 -10 7 -10 12 0 3
6 12 12 20 12 9 0 12 5 9 10 -16 25 17 6 51 -30 21 -22 42 -40 46 -40 10 0
108 -101 108 -112 0 -4 10 -8 22 -8 l21 0 -21 23 c-12 13 -22 28 -22 35 0 6
-9 16 -20 22 -11 6 -20 17 -20 24 0 7 -10 18 -22 24 -49 25 -84 54 -117 95
-12 15 -11 17 10 17 16 0 47 -22 89 -60z m-250 -10 c0 -5 -2 -10 -4 -10 -3 0
-8 5 -11 10 -3 6 -1 10 4 10 6 0 11 -4 11 -10z m-848 -234 c6 4 8 2 4 -4 -3
-6 -2 -13 4 -17 5 -3 10 -11 10 -17 0 -6 -9 1 -20 15 -11 14 -20 29 -19 34 0
4 3 2 6 -5 2 -6 10 -9 15 -6z m64 -93 c-3 -19 -19 -21 -21 -2 -2 9 3 16 10 16
7 0 12 -6 11 -14z m1535 -146 c-10 -9 -11 -8 -5 6 3 10 9 15 12 12 3 -3 0 -11
-7 -18z m-574 -1033 c-3 -3 -12 -4 -19 -1 -8 3 -5 6 6 6 11 1 17 -2 13 -5z"/>
<path d="M29496 25001 c-7 -10 22 -37 30 -28 3 3 17 -6 30 -21 19 -22 23 -24
24 -9 0 11 8 17 25 17 14 0 25 -4 25 -10 0 -5 -9 -10 -21 -10 -14 0 -19 -5
-17 -17 5 -24 25 -27 31 -3 4 14 13 20 34 20 l28 0 -33 20 c-18 11 -40 20 -50
21 -10 0 -12 3 -4 6 15 6 6 23 -13 23 -8 0 -12 -6 -9 -14 3 -8 1 -17 -5 -21
-7 -3 -11 2 -11 14 0 12 -4 21 -10 21 -5 0 -10 -4 -10 -10 0 -5 -7 -10 -16
-10 -8 0 -12 5 -9 10 3 6 2 10 -4 10 -5 0 -12 -4 -15 -9z"/>
<path d="M29690 24880 c0 -23 4 -30 20 -30 20 0 20 1 5 30 -9 17 -18 30 -20
30 -3 0 -5 -13 -5 -30z"/>
<path d="M29631 24894 c-1 -12 52 -74 63 -74 4 0 1 10 -6 23 -7 12 -11 25 -10
30 1 4 -7 7 -17 7 -11 0 -22 6 -24 13 -4 8 -6 8 -6 1z"/>
<path d="M29780 24869 c0 -5 4 -9 10 -9 5 0 7 -6 4 -13 -3 -8 3 -13 16 -13 11
0 20 4 20 8 0 4 -5 8 -11 8 -5 0 -8 4 -5 9 3 5 -3 11 -14 14 -11 3 -20 1 -20
-4z"/>
<path d="M29740 24810 c0 -5 5 -10 10 -10 6 0 10 5 10 10 0 6 -4 10 -10 10 -5
0 -10 -4 -10 -10z"/>
<path d="M29828 24794 c5 -26 10 -28 31 -15 16 11 8 27 -17 33 -15 4 -18 1
-14 -18z"/>
<path d="M29860 24750 c-9 -6 -10 -10 -3 -10 12 0 43 -54 43 -76 0 -7 4 -15 9
-19 13 -7 10 36 -3 54 -8 11 -8 13 2 7 7 -4 12 -1 12 8 0 9 -4 15 -9 14 -5 -2
-16 5 -23 14 -9 13 -17 15 -28 8z"/>
<path d="M29787 24688 c-4 -12 -4 -24 -2 -27 3 -2 5 1 5 7 0 7 5 12 10 12 6 0
8 -12 5 -27 -5 -23 -4 -25 5 -11 11 18 4 68 -10 68 -4 0 -10 -10 -13 -22z"/>
<path d="M29850 24655 c0 -19 4 -35 8 -35 4 0 6 16 4 35 -2 19 -6 35 -8 35 -2
0 -4 -16 -4 -35z"/>
<path d="M29810 24609 c0 -5 5 -7 10 -4 6 3 10 8 10 11 0 2 -4 4 -10 4 -5 0
-10 -5 -10 -11z"/>
<path d="M29087 23889 c7 -7 15 -10 18 -7 3 3 -2 9 -12 12 -14 6 -15 5 -6 -5z"/>
<path d="M29153 23773 c9 -11 14 -22 11 -26 -3 -3 4 -11 16 -17 21 -11 21 -11
3 16 -10 16 -17 31 -15 34 2 3 -5 7 -15 9 -17 3 -17 2 0 -16z"/>
<path d="M0 9406 l0 -385 252 -189 c1634 -1220 3368 -2223 5268 -3047 1988
-861 4083 -1486 6355 -1896 926 -167 1566 -286 1820 -338 923 -190 1012 -210
1950 -429 94 -22 413 -103 710 -180 868 -225 1772 -490 2455 -718 1287 -431
2182 -782 3325 -1304 449 -205 1393 -693 1716 -886 l57 -34 2026 2 2026 3
-118 101 c-1197 1026 -2810 1965 -4675 2720 -2850 1154 -6238 1937 -10337
2389 -278 31 -646 74 -819 96 -3524 447 -6815 1494 -9766 3107 -663 362 -1269
728 -1905 1151 -178 119 -328 218 -332 219 -4 2 -8 -170 -8 -382z"/>
<path d="M0 4440 l0 -4440 11602 0 c6381 0 11599 2 11597 4 -15 15 -427 230
-769 402 -415 207 -928 448 -1240 581 -96 41 -279 119 -407 174 -748 319
-1976 764 -2908 1054 -763 237 -1763 517 -2410 675 -289 71 -493 120 -760 185
-77 19 -309 71 -515 115 -206 45 -424 92 -485 106 -238 52 -783 159 -1485 293
-404 77 -834 161 -954 186 -3751 778 -7157 2218 -10132 4281 -268 185 -729
521 -946 688 -98 75 -180 136 -183 136 -3 0 -5 -1998 -5 -4440z"/>
</g>
</svg>
