<?xml version="1.0" encoding="utf-8"?>
<!-- Generator: Adobe Illustrator 25.4.1, SVG Export Plug-In . SVG Version: 6.00 Build 0)  -->
<svg version="1.1" id="Capa_1" xmlns="http://www.w3.org/2000/svg" xmlns:xlink="http://www.w3.org/1999/xlink" x="0px" y="0px"
	 viewBox="0 0 360 180" style="enable-background:new 0 0 360 180;" xml:space="preserve">
<style type="text/css">
	.st0{fill:#FFFFFF;fill-opacity:0.3;}
	.st1{fill:url(#SVGID_1_);}
</style>
<path class="st0" d="M0,50.8v72.5c60.9-16.7,123.4-27.5,204.8,14c72.9,37.2,124.4,43.7,155.2,42.4v-13.4c-28-0.7-83.2-11.1-161.8-68
	C124.5,44.9,61.8,44.6,0,50.8z"/>
<path class="st0" d="M160.2,118.9c14.3,4.4,29.1,10.4,44.6,18.4c72.9,37.2,124.4,43.7,155.2,42.4v-39.2
	C285.8,100.2,223.3,109.7,160.2,118.9z"/>
<g>
	<g>
		
			<linearGradient id="SVGID_1_" gradientUnits="userSpaceOnUse" x1="156.3221" y1="-207.7458" x2="182.9936" y2="-684.3824" gradientTransform="matrix(0.9999 -1.165597e-02 -1.165597e-02 -0.9999 7.7318 -344.282)">
			<stop  offset="2.307140e-02" style="stop-color:#74B3FD"/>
			<stop  offset="0.6614" style="stop-color:#0066FF"/>
		</linearGradient>
		<path class="st1" d="M0,0v123.5c60.9-16.7,123.4-27.4,204.8,14c72.9,37.1,124.4,43.6,155.2,42.3V0H0z"/>
	</g>
	<path class="st0" d="M0,50.9v72.5c60.9-16.7,123.4-27.5,204.8,14c72.9,37.2,124.4,43.7,155.2,42.4v-13.4
		c-28-0.7-83.2-11.1-161.8-68C124.5,45,61.8,44.7,0,50.9z"/>
	<path class="st0" d="M160.2,119c14.3,4.4,29.1,10.4,44.6,18.4c72.9,37.2,124.4,43.7,155.2,42.4v-39.2
		C285.8,100.3,223.3,109.8,160.2,119z"/>
</g>
</svg>
