<?xml version="1.0" standalone="no"?>
<!DOCTYPE svg PUBLIC "-//W3C//DTD SVG 20010904//EN"
 "http://www.w3.org/TR/2001/REC-SVG-20010904/DTD/svg10.dtd">
<svg version="1.0" xmlns="http://www.w3.org/2000/svg"
 width="626.000000pt" height="417.000000pt" viewBox="0 0 626.000000 417.000000"
 preserveAspectRatio="xMidYMid meet">

<g transform="translate(0.000000,417.000000) scale(0.100000,-0.100000)"
fill="#000000" stroke="none">
<path d="M3586 4113 c303 -216 498 -427 771 -833 244 -362 502 -619 857 -857
164 -109 486 -272 674 -341 128 -47 340 -112 364 -112 5 0 8 16 6 36 -3 35 -4
36 -132 95 -647 295 -1184 790 -1496 1382 -26 48 -50 84 -55 80 -4 -5 -5 -3
-1 4 3 6 -4 22 -16 34 -13 12 -17 18 -9 14 9 -5 12 -3 9 6 -3 8 -12 13 -21 13
-10 -1 -14 6 -12 22 1 13 -1 21 -5 19 -5 -3 -11 2 -14 11 -3 8 -2 12 4 9 6 -3
7 1 4 10 -5 11 -10 13 -19 5 -9 -7 -19 -5 -36 9 -21 17 -22 22 -12 54 7 23 7
40 1 48 -8 11 -9 10 -5 -2 4 -13 1 -15 -14 -12 -11 3 -22 9 -25 14 -3 5 1 6 9
3 20 -7 27 18 11 41 -8 10 -14 15 -14 9 -1 -15 -24 29 -25 46 0 8 -5 14 -10
13 -6 -1 -11 6 -11 15 0 9 -33 63 -73 120 l-74 102 -355 0 -355 0 79 -57z"/>
<path d="M4341 4083 c34 -49 70 -103 81 -120 11 -18 26 -33 33 -33 7 0 16 -7
19 -16 10 -26 7 -29 -10 -8 -14 18 -14 18 -3 -5 11 -22 13 -23 24 -8 7 9 17
17 24 17 17 0 13 18 -6 29 -17 10 -17 10 0 11 9 0 17 -4 17 -10 0 -6 30 -10
70 -10 40 0 70 -4 70 -10 0 -5 5 -10 11 -10 16 0 39 -26 39 -44 0 -9 5 -16 10
-16 6 0 10 -21 10 -48 0 -39 -4 -51 -25 -66 -14 -10 -25 -25 -25 -32 0 -8 -7
-14 -15 -14 -9 0 -18 -7 -21 -15 -4 -8 -12 -15 -19 -15 -7 0 -15 -6 -18 -12
-6 -18 3 -39 13 -33 5 3 8 -3 7 -12 0 -10 21 -61 47 -113 295 -578 791 -1053
1422 -1361 78 -38 147 -69 153 -69 8 0 11 287 11 1055 l0 1055 -990 0 -990 0
61 -87z"/>
<path d="M4487 3855 c3 -8 9 -12 14 -9 12 7 11 11 -5 17 -10 4 -13 1 -9 -8z"/>
<path d="M4460 3729 c0 -5 5 -7 10 -4 6 3 10 8 10 11 0 2 -4 4 -10 4 -5 0 -10
-5 -10 -11z"/>
<path d="M4580 3721 c0 -5 5 -13 10 -16 6 -3 10 -2 10 4 0 5 -4 13 -10 16 -5
3 -10 2 -10 -4z"/>
<path d="M4600 3681 c0 -7 -4 -9 -10 -6 -6 4 -7 -1 -3 -11 6 -15 7 -15 15 1 6
9 7 19 4 22 -3 4 -6 1 -6 -6z"/>
<path d="M0 1472 l0 -59 113 -81 c325 -233 739 -439 1149 -571 184 -59 411
-114 668 -161 709 -130 1168 -271 1631 -502 l197 -98 307 0 c218 0 304 3 299
11 -3 6 -50 44 -104 84 -236 175 -513 312 -879 435 -392 132 -845 225 -1421
290 -533 61 -997 193 -1441 411 -164 81 -306 161 -424 239 -38 26 -76 50 -82
54 -10 5 -13 -7 -13 -52z"/>
<path d="M0 690 l0 -690 1813 1 1812 0 -130 66 c-399 202 -872 350 -1555 487
-466 93 -714 165 -1023 297 -296 127 -524 255 -785 441 -68 48 -125 88 -128
88 -2 0 -4 -310 -4 -690z"/>
</g>
</svg>
